<?xml version="1.0" standalone="no"?>
<!DOCTYPE svg PUBLIC "-//W3C//DTD SVG 20010904//EN"
 "http://www.w3.org/TR/2001/REC-SVG-20010904/DTD/svg10.dtd">
<svg version="1.0" xmlns="http://www.w3.org/2000/svg"
 width="221.000000pt" height="228.000000pt" viewBox="0 0 221.000000 228.000000"
 preserveAspectRatio="xMidYMid meet">

<g transform="translate(0.000000,228.000000) scale(0.100000,-0.100000)"
fill="#000000" stroke="none">
<path d="M969 2052 c-64 -125 -184 -360 -267 -523 -84 -163 -149 -299 -145
-302 3 -4 21 8 39 27 58 59 49 13 -22 -123 -37 -69 -70 -128 -74 -131 -4 -3
-12 -15 -19 -28 -7 -12 -16 -20 -22 -17 -5 4 -9 1 -9 -4 0 -6 -3 -10 -7 -9
-14 4 -63 -49 -88 -97 -107 -199 -355 -695 -355 -707 0 -11 28 -21 100 -37
l100 -22 36 22 c39 24 79 23 186 -7 l57 -16 -20 -21 c-10 -11 -19 -24 -19 -27
0 -8 110 -34 116 -28 4 4 64 148 64 153 0 10 -34 -5 -55 -23 -14 -12 -25 -18
-25 -14 0 11 64 171 94 234 24 50 51 80 81 88 6 1 16 11 23 21 7 11 20 19 28
19 8 0 14 4 14 8 0 21 59 32 176 32 96 0 125 -3 122 -12 -3 -7 -17 -19 -32
-27 -51 -24 -9 -31 197 -31 l197 0 72 -146 c67 -136 72 -144 84 -122 7 13 15
22 18 21 15 -7 15 0 1 33 -22 53 -19 70 18 93 57 36 196 138 207 151 3 3 27
19 55 34 27 15 47 24 43 21 -3 -4 1 -15 10 -24 10 -10 22 -25 27 -34 9 -15 12
-15 34 2 l23 18 -121 240 c-67 132 -129 249 -137 259 -9 10 -12 13 -8 5 5 -11
2 -13 -14 -9 -12 4 -20 3 -18 -1 3 -4 1 -13 -3 -19 -5 -9 -21 14 -47 64 l-39
76 27 22 26 21 -115 225 c-138 269 -157 301 -161 278 -4 -19 -24 -29 -39 -20
-6 4 -25 35 -42 70 -27 54 -30 65 -18 77 8 8 17 12 20 9 41 -42 -94 259 -199
444 -14 24 -32 42 -42 42 -12 0 -51 -66 -133 -228z m525 -641 c55 -106 54
-123 -10 -156 -22 -11 -52 -32 -69 -47 -16 -16 -34 -28 -38 -28 -4 0 -22 -13
-40 -30 -18 -16 -38 -30 -44 -30 -7 0 -13 -5 -13 -12 0 -6 -3 -8 -7 -5 -3 4
-12 -1 -20 -11 -8 -9 -12 -11 -8 -4 3 6 2 12 -3 12 -15 0 -106 206 -96 221 3
5 12 9 20 9 8 0 14 4 14 9 0 6 22 22 50 38 27 15 50 31 50 36 0 4 5 7 11 7 6
0 32 17 58 39 48 39 69 51 86 47 6 -1 32 -44 59 -95z m-331 -314 c37 -84 67
-155 67 -159 0 -5 -63 -8 -141 -8 -130 0 -141 1 -135 18 20 54 132 302 136
302 3 0 35 -69 73 -153z m-202 32 c-47 -104 -111 -253 -111 -260 0 -4 17 -9
38 -11 31 -3 34 -5 17 -13 -11 -5 -33 -22 -50 -37 -16 -15 -36 -28 -42 -28 -7
0 -13 -3 -13 -7 0 -5 -18 -19 -40 -33 -22 -13 -40 -28 -40 -32 0 -4 -6 -8 -14
-8 -8 0 -23 -11 -34 -25 -11 -14 -27 -25 -35 -25 -9 0 -19 -5 -22 -10 -4 -6
-33 -28 -65 -49 -33 -22 -65 -45 -72 -51 -34 -28 -134 -99 -141 -100 -4 0 -22
-13 -40 -30 -18 -16 -38 -30 -44 -30 -7 0 -13 -8 -13 -17 0 -13 -3 -14 -11 -6
-8 8 -18 4 -35 -15 l-24 -27 16 45 c8 25 55 124 105 220 108 210 108 210 369
388 30 20 56 40 58 45 2 4 10 7 17 7 8 0 18 6 22 13 10 15 123 94 149 104 11
4 27 18 38 31 29 37 40 12 17 -39z"/>
<path d="M2100 340 c0 -5 -3 -9 -7 -8 -18 4 -157 -81 -238 -144 -5 -4 -24 -19
-41 -33 -18 -14 -37 -25 -42 -25 -6 0 -18 -12 -27 -27 -9 -16 -32 -39 -51 -53
-55 -41 -43 -50 44 -30 42 10 166 37 275 60 140 31 197 47 197 57 0 15 -97
213 -105 213 -3 0 -5 -4 -5 -10z"/>
</g>
</svg>
